<svg xmlns="http://www.w3.org/2000/svg" width="512" height="512" viewBox="0 0 512 512">
  <path d="M256 128C185.31 128 128 185.31 128 256C128 326.69 185.31 384 256 384C326.69 384 384 326.69 384 256C384 185.31 326.69 128 256 128ZM256 352C203.07 352 160 308.93 160 256C160 203.07 203.07 160 256 160C308.93 160 352 203.07 352 256C352 308.93 308.93 352 256 352Z" fill="#22c55e"/>
  <path d="M256 171C209.13 171 171 209.13 171 256C171 302.87 209.13 341 256 341C302.87 341 341 302.87 341 256C341 209.13 302.87 171 256 171ZM256 309C226.71 309 203 285.29 203 256C203 226.71 226.71 203 256 203C285.29 203 309 226.71 309 256C309 285.29 285.29 309 256 309Z" fill="#22c55e"/>
  <path d="M256 224C241.64 224 230 235.64 230 250C230 264.36 241.64 276 256 276C270.36 276 282 264.36 282 250C282 235.64 270.36 224 256 224Z" fill="#22c55e"/>
</svg>